<svg width="19" height="13" viewBox="0 0 19 13" fill="none" xmlns="http://www.w3.org/2000/svg">
<path d="M1 11.2667V7.23333C1 6.97664 1 6.8483 1.04995 6.75025C1.09389 6.66401 1.16401 6.5939 1.25024 6.54996C1.34828 6.5 1.47662 6.5 1.73331 6.5H5.76649C6.02317 6.5 6.15151 6.5 6.24955 6.54996C6.33578 6.5939 6.4059 6.66401 6.44984 6.75025C6.49979 6.8483 6.49979 6.97664 6.49979 7.23333V11.2667C6.49979 11.5234 6.49979 11.6517 6.44984 11.7497C6.4059 11.836 6.33578 11.9061 6.24955 11.95C6.15151 12 6.02317 12 5.76649 12H1.73331C1.47662 12 1.34828 12 1.25024 11.95C1.16401 11.9061 1.09389 11.836 1.04995 11.7497C1 11.6517 1 11.5234 1 11.2667Z" stroke="white" stroke-width="1.2" stroke-linecap="round" stroke-linejoin="round"/>
<path d="M6.5 11.2667V7.23333C6.5 6.97664 6.5 6.8483 6.54995 6.75025C6.59389 6.66401 6.66401 6.5939 6.75024 6.54996C6.84828 6.5 6.97662 6.5 7.23331 6.5H11.2665C11.5232 6.5 11.6515 6.5 11.7495 6.54996C11.8358 6.5939 11.9059 6.66401 11.9498 6.75025C11.9998 6.8483 11.9998 6.97664 11.9998 7.23333V11.2667C11.9998 11.5234 11.9998 11.6517 11.9498 11.7497C11.9059 11.836 11.8358 11.9061 11.7495 11.95C11.6515 12 11.5232 12 11.2665 12H7.23331C6.97662 12 6.84828 12 6.75024 11.95C6.66401 11.9061 6.59389 11.836 6.54995 11.7497C6.5 11.6517 6.5 11.5234 6.5 11.2667Z" stroke="white" stroke-width="1.2" stroke-linecap="round" stroke-linejoin="round"/>
<path d="M6.5 5.76666V1.73333C6.5 1.47664 6.5 1.3483 6.54995 1.25025C6.59389 1.16401 6.66401 1.0939 6.75024 1.04996C6.84828 1 6.97662 1 7.23331 1H11.2665C11.5232 1 11.6515 1 11.7495 1.04996C11.8358 1.0939 11.9059 1.16401 11.9498 1.25025C11.9998 1.3483 11.9998 1.47664 11.9998 1.73333V5.76666C11.9998 6.02335 11.9998 6.1517 11.9498 6.24974C11.9059 6.33598 11.8358 6.4061 11.7495 6.45004C11.6515 6.49999 11.5232 6.49999 11.2665 6.49999H7.23331C6.97662 6.49999 6.84828 6.49999 6.75024 6.45004C6.66401 6.4061 6.59389 6.33598 6.54995 6.24974C6.5 6.1517 6.5 6.02335 6.5 5.76666Z" stroke="white" stroke-width="1.2" stroke-linecap="round" stroke-linejoin="round"/>
<path d="M11.9998 11.2667V7.23333C11.9998 6.97664 11.9998 6.8483 12.0497 6.75025C12.0936 6.66401 12.1638 6.5939 12.25 6.54996C12.348 6.5 12.4764 6.5 12.7331 6.5H16.7662C17.0229 6.5 17.1513 6.5 17.2493 6.54996C17.3355 6.5939 17.4057 6.66401 17.4496 6.75025C17.4995 6.8483 17.4995 6.97664 17.4995 7.23333V11.2667C17.4995 11.5234 17.4995 11.6517 17.4496 11.7497C17.4057 11.836 17.3355 11.9061 17.2493 11.95C17.1513 12 17.0229 12 16.7662 12H12.7331C12.4764 12 12.348 12 12.25 11.95C12.1638 11.9061 12.0936 11.836 12.0497 11.7497C11.9998 11.6517 11.9998 11.5234 11.9998 11.2667Z" stroke="white" stroke-width="1.2" stroke-linecap="round" stroke-linejoin="round"/>
</svg>
