<svg width="12" height="12" viewBox="0 0 12 12" fill="none" xmlns="http://www.w3.org/2000/svg">
<path d="M1.05576 11.4546C0.638349 11.4198 2.00959 9.49411 1.75716 9.19869C0.971817 8.27959 0.5 7.10098 0.5 5.81587C0.5 2.87999 2.96243 0.5 6 0.5C9.03757 0.5 11.5 2.87999 11.5 5.81587C11.5 8.75174 9.03757 11.1317 6 11.1317C5.15646 11.1317 4.35727 10.9765 3.64286 10.6485C3.32169 10.501 1.91512 10.2736 1.17741 11.4546M1.05576 11.4546C1.13092 11.2038 1.06494 11.6347 1.17741 11.4546M1.05576 11.4546C1.2059 10.7111 1.14512 11.3594 1.17741 11.4546" stroke="black"/>
</svg>
