<svg width="67" height="52" viewBox="0 0 67 52" fill="none" xmlns="http://www.w3.org/2000/svg">
<path d="M9.70444 28.3147C9.84869 28.6444 9.76626 29.036 9.53958 29.3039L3.97555 35.8159C3.89312 35.8983 3.76947 35.9189 3.68704 35.8365L1.17293 33.5902C-0.0841241 32.4774 -0.352027 30.664 0.472274 29.2627L5.17078 21.5348C5.58293 20.8754 6.5721 20.9578 6.8606 21.6791C7.89098 24.2138 8.94196 26.4806 9.70444 28.3147ZM33.8977 24.1108C33.2176 23.3483 32.4551 22.6889 31.3629 22.2355C30.9508 22.0706 30.4562 22.2355 30.2295 22.6271L26.0462 29.7779C25.2219 31.1586 25.531 32.9926 26.8705 34.0436L29.2404 35.7746C29.3228 35.8365 29.4464 35.8159 29.5083 35.754L36.1439 28.1499C36.4324 27.8201 36.453 27.3462 36.1851 26.9958C35.3196 25.8418 34.4128 24.6878 33.8977 24.1108ZM53.2274 0.083718C53.3304 0.083718 53.2274 0.083718 53.1243 0.0817442L45.376 0.0206088C45.376 2.06075 48.1373 -0.0748418 46.1178 0.00758824C43.9952 0.0900183 46.0578 2.12257 46.0578 0L47.0451 0.0869379C47.0451 -0.0367071 45.4997 0.0206088 45.376 0.0206088C44.3457 0.103039 43.4183 0.680051 42.9237 1.58678L39.8326 7.04777C39.2762 8.01632 38.2665 8.61394 37.133 8.61394H12.7956C11.5591 8.61394 10.4257 7.87207 9.95173 6.71805L7.87038 1.71043C7.43762 0.680052 6.44846 0.0618238 5.39747 0.0206088H1.48205C1.33779 0.0206088 1.23475 0.16486 1.29657 0.309113C2.61546 3.54449 14.7327 33.4872 14.7327 33.4872C15.3921 35.0328 16.5667 35.7746 17.7826 35.8983V35.9189H21.8835C21.9865 35.9189 22.0896 35.8159 22.0896 35.7128V24.3169C22.0896 22.2767 24.9128 19.2062 28.7664 19.2062C32.62 19.2062 34.3098 20.422 35.7317 21.9882C37.1536 23.575 41.0279 28.9536 41.0279 28.9536C43.068 31.7768 45.0257 34.4352 45.0257 34.4352C46.3858 36.2486 48.4878 36.2486 50.0127 35.3007L52.7329 33.4666C52.8154 33.4048 52.8566 33.3017 52.8154 33.2193C52.1971 31.7768 47.5192 20.8548 46.6949 18.7528C45.5203 15.7854 48.4466 12.4057 52.2589 12.4057H54.5876C67.4896 12.4057 67.0759 12.3645 66.9728 4.9458C66.9642 4.32706 66.9744 3.70935 66.9744 2.98809C66.9744 2.57594 66.9737 2.31995 66.9744 1.95771C66.9744 1.54556 66.9744 0.721263 66.9744 0.103038C66.9744 -0.0206075 66.9744 0.0618263 66.9744 0.0618263H53.2893L53.2274 0.083718Z" fill="#116AF9"/>
<path d="M45.293 0.0859375H51.6813V6.88642C48.1531 6.88642 45.293 4.02626 45.293 0.498083V0.0859375Z" fill="white"/>
<path d="M9.5 47.34L12.44 43.068V39.72L12.56 39.6H12.8L12.92 39.72V43.176L12.86 43.32L9.68 47.94L9.536 48H9.464L9.32 47.94L6.14 43.32L6.08 43.176V39.72L6.2 39.6H6.44L6.56 39.72V43.068L9.5 47.34ZM18.6777 47.88V47.64L18.7977 47.52H21.8577V40.08H18.9177L18.7377 39.96L18.6777 39.72L18.7977 39.6H22.2177L22.3377 39.72V47.52H25.3977L25.5177 47.64V47.88L25.3977 48H18.7977L18.6777 47.88ZM27.6777 47.4L27.7977 47.28H28.2777L28.3977 47.4V47.88L28.2777 48H27.7977L27.6777 47.88V47.4ZM35.8405 39.6L37.4005 41.16V46.44L35.8405 48H32.1205L30.5605 46.44V41.16L32.1205 39.6H35.8405ZM31.0405 41.34V46.26L31.4965 46.716L36.1645 40.584L35.6605 40.08H32.3005L31.0405 41.34ZM36.9205 46.26V41.34L36.5125 40.932L31.8445 47.064L32.3005 47.52H35.6605L36.9205 46.26ZM39.5605 47.4L39.6805 47.28H40.1605L40.2805 47.4V47.88L40.1605 48H39.6805L39.5605 47.88V47.4ZM47.7233 39.6L49.2833 41.16V46.44L47.7233 48H44.0033L42.4433 46.44V41.16L44.0033 39.6H47.7233ZM42.9233 41.34V46.26L43.3793 46.716L48.0473 40.584L47.5433 40.08H44.1833L42.9233 41.34ZM48.8033 46.26V41.34L48.3953 40.932L43.7273 47.064L44.1833 47.52H47.5433L48.8033 46.26Z" fill="black"/>
</svg>
