<svg width="11" height="14" viewBox="0 0 11 14" fill="none" xmlns="http://www.w3.org/2000/svg">
<path d="M6.52299 0.351562V3.19601C6.52299 3.38461 6.59524 3.56548 6.72383 3.69884C6.85243 3.8322 7.02684 3.90712 7.20871 3.90712H9.95156M6.52299 0.351562H1.72299C1.35927 0.351563 1.01044 0.501403 0.753245 0.768122C0.496052 1.03484 0.351562 1.39659 0.351562 1.77378V11.7293C0.351563 12.1065 0.496052 12.4683 0.753245 12.735C1.01044 13.0017 1.35927 13.1516 1.72299 13.1516H8.58013C8.94386 13.1516 9.29269 13.0017 9.54988 12.735C9.80707 12.4683 9.95156 12.1065 9.95156 11.7293V3.90712M6.52299 0.351562L9.95156 3.90712M3.09442 3.19601H3.78013M3.09442 7.46267H7.20871M5.83728 10.3071H7.20871" stroke="#2B7CFF" stroke-width="0.7" stroke-linecap="round" stroke-linejoin="round"/>
</svg>
